<svg xmlns="http://www.w3.org/2000/svg" viewBox="3000 750 4200 2800" fill="none">
<path
     d="m 5035,857.25 -13.75,1.5 v 110 110 l 21.5,0.75 c 15.25,0.5 22.25,-0.25 24,-2.5 1.5,-2 1.75,-25.5 0.5,-64.5 -1,-37 -0.75,-63 0.5,-65.75 3.75,-6.75 8.75,-5 17.75,6 4.5,5.75 11.75,14.5 16,19.5 4.25,5 17.5,21.25 29.25,36.5 11.75,15 29.75,37.5 39.5,49.5 l 18.25,22 20,-0.75 20.25,-0.75 V 967.5 856.25 H 5208 c -13.5,0 -21.75,1 -23.5,3 -2.5,3.25 -3,107 -0.5,117 0.75,2.75 -0.5,7.25 -2.5,10 -3.75,4.75 -4.25,4.5 -18.25,-10.5 -8,-8.5 -20.75,-23 -28.25,-32 -7.5,-9 -19,-22.25 -25.25,-29.5 -6.25,-7 -16,-19.25 -21.5,-26.75 -5.75,-7.5 -14.25,-18 -19,-23.25 -9,-9.75 -9,-9.75 -34.25,-7 z"
     id="path62"
     style="fill:#E8ECF4" /><path
     d="m 5121.5,1109.25 c -3.75,3.75 -11.5,24.25 -11.5,30.25 0,3.5 -1.5,8.25 -3.25,10.25 -2,2.25 -6.5,14 -10.25,26.5 -3.75,12.25 -8,25.75 -9.5,30 -1.25,4 -4,13 -5.75,20 -2,6.75 -6.75,19.5 -11,28 -4.25,8.5 -8.75,20.75 -10.25,27.25 -1.5,6.5 -4.25,14 -6.25,17 -2,2.75 -3.75,6.75 -3.75,9 0,2 -1.75,7 -3.75,11 -3.5,6.75 -7.75,20 -14,44 -1.5,6.25 -5,16 -7.5,22 -2.5,5.75 -4.75,12.75 -4.75,15.25 0,2.5 -1.75,6 -3.5,7.75 -2,1.5 -5,9.25 -6.75,17 -1.75,7.75 -6.5,22 -10.5,31.75 -4,9.5 -8,21.25 -9.25,26 -1.25,4.75 -3.75,12 -5.75,16.25 -2,4.25 -6.25,17.25 -9.5,29 -3,11.75 -7.75,25.25 -10.25,30 -2.5,4.75 -4.5,11 -4.5,14 0,2.75 -2.75,12 -6.25,20.5 -8,20 -8.25,26.75 -0.5,24.5 3,-1 16.75,-4 30.5,-6.5 13.75,-2.75 30,-6 36.25,-7.25 15.75,-3 55.75,-6 91.25,-6.25 39.25,-0.25 115.75,5.5 123.75,9.75 3.5,1.75 14.25,3.75 23.75,4.5 9.75,1 23.5,3.5 31,5.75 20.5,6 21,4.5 5,-30.5 -2.75,-5.75 -4.75,-12.75 -4.75,-15.75 0,-3 -2.25,-9.75 -5,-15.25 -2.75,-5.5 -5,-12.25 -5,-15.25 0,-3 -1.5,-7.5 -3.5,-9.5 -3.5,-4 -8.75,-21 -15.25,-48.5 -1.75,-8 -5,-16.5 -6.75,-18.75 -2,-2.5 -5.5,-11 -8,-19.25 -2.75,-8.25 -7.25,-22 -10.5,-30.5 -3.25,-8.5 -6,-17.25 -6,-19.75 0,-2.25 -4,-12.5 -8.75,-22.75 -4.75,-10.25 -8.75,-20 -8.75,-21.75 0,-4.5 -13.25,-44.5 -21.25,-64 -3.75,-9 -8.25,-21.25 -10,-27.5 -4,-13.25 -13,-39.25 -16,-46.25 -1.25,-2.75 -4.5,-10 -7.25,-16.25 -3,-6.25 -6,-15.75 -7,-21.25 -1,-5.5 -3.75,-14.25 -6.25,-19.25 -2.75,-5.25 -4.75,-11.75 -4.75,-14.75 0,-6.5 -11.75,-32.25 -14.75,-32.25 -1,0 -2.75,0.75 -3.75,1.75 z"
     id="path63"
     style="fill:#E8ECF4" /><path
     d="m 5027.25,1166 c -0.75,0.75 -21,2.5 -45,3.75 -28,1.25 -51.5,4 -66,7.25 -12.25,3 -43.75,9.25 -70,14.25 -44.75,8.25 -56.25,11 -96.25,23.5 -9.25,3 -21.5,6.25 -27.5,7.5 -21.25,4.75 -41.25,10.75 -46.25,14.25 -2.75,2 -7.25,3.5 -10,3.5 -2.75,0 -7.75,2 -11,4.25 -3.5,2.25 -11.75,5 -18.5,6 -6.75,1.25 -14,3.5 -16,5.25 -2,1.75 -7.25,4.5 -11.75,6 -4.25,1.75 -15.5,6 -25.25,9.75 -9.5,3.5 -21.5,7.75 -26.25,9.25 -4.75,1.25 -13.25,5.5 -18.75,9.5 -5.5,3.75 -18.5,10.75 -28.75,16 -10.25,5 -20.5,10.25 -22.5,11.5 -2,1.25 -11,5.75 -20,10 -17.25,8 -18.25,8.75 -40,22.5 -7.5,4.75 -16.75,10.5 -20.5,12.5 -18.25,10.25 -34.25,20.5 -37,23.5 -1.5,2 -6,4.25 -10,5.25 -3.75,0.75 -11.25,5.25 -16.5,9.75 -5.5,4.5 -14.5,11.5 -20,15.5 -25.5,18 -45.5,33.5 -61.75,47.75 -9.75,8.75 -18.75,15.75 -20,15.75 -4,0 -21.75,16.25 -21.75,20.25 0,2 4.5,7 10.25,11.25 5.5,4 13.25,9.75 17.25,12.75 3.75,3.25 8,5.75 9.25,5.75 1.25,0 10.75,6.25 21,14 10.25,7.75 20.25,14.75 22.25,15.5 3.25,1.25 13.75,8.75 35.5,25.25 3.5,3 8,5.25 9.75,5.25 1.75,0 9.5,-5.5 17,-12 7.75,-6.75 18.5,-15 24,-18.5 5.5,-3.5 11.75,-8.25 13.5,-10.5 2,-2.5 6.75,-6 10.5,-8 4,-2 17.75,-11.25 30.75,-20.75 13,-9.5 26.5,-17.75 29.75,-18.75 3.5,-0.75 16.25,-8.25 28.75,-16.5 12.5,-8.25 23.5,-15 24.75,-15 1,0 8.5,-4.5 16.5,-10 7.75,-5.5 15.5,-10 17,-10 2.5,0 40.5,-17.5 55,-25 2.25,-1.25 9,-3.5 15,-5 6,-1.75 12.75,-4.25 14.75,-6 3.75,-3 14.75,-7.75 41.75,-18.75 7,-3 15.75,-5.25 19.5,-5.25 3.5,0 14.5,-3.75 24.5,-8.5 10,-4.5 22.5,-9 28,-10 10.5,-1.75 34.25,-9 55,-16.75 7,-2.75 14.5,-4.75 16.5,-4.75 2.25,0 9,-1.75 15,-3.75 12.75,-4.5 53.75,-12 109.75,-20 30,-4.25 37.5,-7.75 37.5,-17.25 0,-3 1.5,-7.5 3.5,-10.25 1.75,-2.75 4.25,-9 5.25,-13.75 1,-4.75 3,-10.25 4.25,-12 1.5,-1.75 4.75,-10 7,-18.75 2.5,-8.5 5.75,-19.5 7.5,-24.25 1.75,-4.75 5,-14.5 7.5,-21.25 2.25,-7 5.75,-16.5 7.5,-21.25 4.5,-12.5 4.5,-21 0,-22 -2.25,-0.25 -4.5,0 -5.25,0.5 z"
     id="path64"
     style="fill:#E8ECF4" /><path
     d="m 5210.75,1171.5 c -0.75,2.25 0.25,7.75 2.5,12 2,4.25 5.25,12.25 7,17.75 1.5,5.5 3.75,11 4.75,12.5 1,1.25 2.75,6.5 3.75,11.25 1.75,8.75 10.75,34 17.75,49.25 2,4.25 3.5,8.75 3.5,10 -0.25,6.75 11.75,36.5 15.25,38.5 2.5,1.25 18.75,3.5 36.5,5 17.5,1.5 38,4.25 45.25,6 7.25,2 20.25,4.25 28.75,5 8.5,1 20.75,3.75 27.25,6.5 6.5,2.5 14.5,4.75 18.25,4.75 3.5,0 9.75,1.75 13.5,3.75 4,2 12.25,4.75 18,6.25 24,5.5 49,12.75 56,16 8,3.5 25,9.5 43.75,15.25 19.5,5.75 33.5,11.5 37.75,15.25 2,2 5.25,3.5 6.75,3.5 1.75,0 7.25,2.25 12.25,5 5.25,2.75 10.75,5 12.25,5 3.5,0 62.5,26.25 73.5,32.75 2,1.25 7.75,4.25 12.5,7 10,5.25 19.25,10.5 33.75,19.25 5.5,3.25 17.5,9.75 26.5,14.5 9.25,4.75 24.25,14.25 33.5,20.75 9,6.5 20.25,14.25 24.5,16.75 6.75,4 33.75,24.25 62.25,46.25 9.25,7.5 13.75,6.5 30.5,-6 8.25,-6.25 15.75,-11.25 16.75,-11.25 2.25,0 38,-26.5 53.25,-39.25 5.5,-4.5 11.25,-8.25 12.75,-8.25 1.5,0 5.5,-2.75 8.75,-6.25 3.25,-3.5 7.5,-6.25 9.25,-6.25 2,0 4,-1.75 4.75,-3.75 1.5,-3.75 -20,-26 -25.25,-26.25 -1.5,0 -7.25,-4.5 -12.5,-10 -5.25,-5.5 -10.75,-10 -12.25,-10 -1.25,0 -10.25,-6.5 -20,-14.5 -9.75,-7.75 -23.25,-18 -30.25,-22.75 -6.75,-4.75 -15.75,-11.75 -20,-15.5 -4,-3.75 -12,-8 -17.75,-9.5 -5.5,-1.5 -12.25,-5.25 -15,-8 -2.5,-3 -8,-7 -12.25,-9 -7.5,-3.5 -13.5,-7 -40.5,-23.25 -8,-4.75 -15.5,-9.25 -17,-9.75 -1.25,-0.5 -12.5,-6.75 -25,-14 -12.25,-7.25 -25.25,-14 -28.75,-15 -3.5,-1 -15.75,-7.5 -27.5,-14.25 -11.75,-6.75 -24,-12.75 -27.5,-13.75 -6,-1.5 -28.5,-10 -43.75,-16.75 -22,-10 -28.5,-12.5 -40,-15.25 -6.75,-1.75 -21,-6.5 -31.25,-10.75 -25.75,-10.25 -33.25,-12.75 -55,-18 -10.25,-2.5 -30.5,-8 -45,-12 -26.25,-7.75 -35,-9.5 -81.25,-18.25 -13.75,-2.5 -36.25,-6.75 -50,-9.5 -42.5,-8.75 -51.25,-9.75 -93.25,-11.25 -36.25,-1.25 -40.75,-1 -42.25,2.5 z"
     id="path65"
     style="fill:#E8ECF4" /><path
     d="m 6183.75,1447.75 c -10,7.5 -21.5,15.25 -40,27 -5.5,3.5 -15.25,10.5 -21.5,15.75 -6.5,5.25 -12.5,9.5 -13.5,9.5 -1,0 -7.5,4.5 -14.25,10 -7,5.5 -13.75,10 -15,10 -1.5,0 -7.75,4.25 -14.25,9.5 -13.5,11.25 -26,19.5 -43,29 -4.75,2.5 -10.75,6.5 -13.5,9 -2.75,2.5 -11.25,8.75 -18.75,14 -7.5,5.25 -18.25,12.75 -23.75,16.5 -5.5,4 -14.25,10 -19.75,13.5 -5.25,3.5 -15.75,11.5 -23.25,17.5 -7.25,6 -14.5,11 -15.75,11 -1.5,0 -7.25,3.75 -13.5,8 -6,4.5 -14.5,10.5 -19.25,13.25 -22.5,13.5 -31.5,19.75 -79,56.25 -17.25,13.25 -22.75,13 -39,-2 -7.25,-6.5 -15.75,-13.75 -19.25,-16.25 -3.5,-2.25 -14.5,-9.75 -24.75,-16.75 -20.5,-14 -30,-15.75 -36,-7 -2,3.25 -7.75,10 -12.75,15.5 -5,5.25 -8.75,10.75 -8.25,12.25 0.5,1.5 5,5.25 10,8 23.5,13 61.75,43.25 61.75,49 0,4.5 -4.5,8 -35.75,28.5 -9.5,6.25 -22,15 -27.5,19.5 -16.75,13.25 -31.75,22 -36,21.25 -2.25,-0.5 -5.25,-4.5 -7,-9.25 -3.5,-11 -19.25,-24.5 -40.75,-35.25 -9.25,-4.75 -21,-12.25 -26.25,-16.75 -5,-4.5 -10.75,-8.25 -12.5,-8.25 -1.5,0 -5.75,-2.25 -9.25,-5 -3.5,-2.75 -9,-5 -12.25,-5 -3.25,0 -10.75,-2.5 -16.75,-5.5 l -11,-5.5 -7,5.25 c -13.5,10 -27.75,15.75 -39,15.75 -9.75,0 -12,-1 -16.75,-7.75 -3.75,-5.25 -5.75,-12 -5.75,-19.5 -0.25,-6.25 -1.5,-13.5 -2.75,-15.75 -3.75,-6.5 -25.5,-17 -34.75,-17 -4.5,0 -11.25,-2.25 -14.75,-5 -3.5,-2.75 -10,-5 -15,-5 -4.75,0 -11.25,-2 -14.5,-4.5 -3.75,-3 -12.25,-5.25 -22.75,-6.25 -9,-0.75 -20.75,-3.25 -26,-5.5 -10.5,-4.25 -12.5,-3.5 -33.5,14 -18.5,15.5 -36.25,19.25 -48,9.75 -5,-3.75 -6.5,-7.75 -7.5,-18.75 -0.75,-7.75 -2.25,-15 -3.5,-16.25 -2.75,-2.75 -111,-3.75 -131,-1 -19.25,2.5 -26.25,6.5 -32.25,19.5 -6.5,13 -10.25,16.5 -22.5,20.75 -18.25,6.5 -22,4.5 -32.75,-17.75 -7.25,-14.75 -10.75,-16 -27.75,-10.5 -6.75,2.25 -19.25,4.75 -27.75,5.75 -9.5,0.75 -18.25,3.5 -21.75,6.25 -3.25,2.5 -9.5,4.5 -13.75,4.5 -4.5,0 -9.25,1.25 -10.75,2.75 -1.5,1.5 -10.5,4 -20.25,5.5 -17.25,3 -17.75,3.25 -29,17.75 -6.25,8.25 -11.5,17 -11.5,19.75 0,2.75 -4.25,9.25 -9.75,14.5 -13.25,13.5 -22.25,13.25 -33,-0.25 -6.25,-7.75 -9.75,-10 -15.75,-10 -9.5,0 -32.75,8.5 -41,15.25 -3.5,2.5 -8.25,4.75 -10.5,4.75 -2.5,0 -10,3.75 -17,8 -6.75,4.5 -15.5,10.25 -19.5,12.5 -10.5,6.25 -15.5,9.75 -30.25,20.25 -13,9.25 -13.25,9.5 -13.25,22.5 0,8.75 -1.75,15.5 -5,20.5 -2.75,4 -5,9.5 -5,11.75 0,6.5 -9,14.5 -16,14.5 -3.5,0 -9.5,-2.75 -13.5,-6.25 -5,-4.25 -10.5,-6.25 -16.75,-6.25 -5.75,0 -12,2.25 -17.25,6.25 -4.5,3.5 -9.25,6.25 -10.5,6.25 -2,0 -44.25,41 -76.25,73.75 l -9.75,10 v 24 c 0,19.25 -1,25.25 -4.5,30 -2.5,3.25 -5.75,9 -7.5,12.75 -3.5,8.5 -10.5,9 -24.25,2 -12,-6 -16,-6.25 -23.5,-1 -5.5,4 -36.25,49 -39.5,57.75 -0.75,2.5 -2.75,6.25 -4.5,8.25 -3.5,4.5 -14.5,24.75 -20.25,38 -4.5,10.75 -4,19.25 3.75,47.75 4.75,18.25 5,20.25 1.25,27.5 -8.75,17.5 -14.75,20 -28,12.5 -4,-2.25 -9,-3.5 -11.25,-2.5 -5,1.75 -19.25,23.75 -19.25,29.5 0,2.25 -2.75,8.25 -6.25,13.25 -3.5,5 -6.25,10.25 -6.25,11.5 0,1.5 -2.25,9 -4.75,16.75 -2.75,8 -5.5,21.25 -6.25,29.5 -2.25,19.5 -6.5,23.75 -30.75,29 -10.75,2.25 -27.75,6.5 -37.5,9.5 -39,11.25 -55.25,15.5 -75.25,19 -11.5,2 -23.25,5.5 -26.25,7.5 -3,2 -9.5,3.75 -14.25,3.75 -5,0 -15.25,1.75 -22.75,4 -7.5,2.25 -19,5 -26,6 -6.75,1.25 -17.5,3.75 -23.75,5.75 -6.25,2.25 -16.25,5.25 -22.5,6.75 -6.25,1.5 -17.5,4.25 -25,6.25 -7.5,1.75 -19.25,5.25 -26,7.25 -6.75,2.25 -14.75,4 -17.5,4 -3,0 -19.25,4.25 -36.5,9.75 -46.5,14.5 -57.25,17.5 -73.75,19.25 -8.25,1 -18,3.25 -22,5.25 -3.75,1.75 -11.5,4.5 -17.5,5.75 -5.75,1 -15.5,3.75 -21.75,6 -15,5 -30,8.75 -51.75,12.75 -10,2 -21.25,5.25 -25,7 -4,2 -11,4.25 -15.75,5.25 -4.75,0.75 -16,3.75 -25,6.25 -21.25,6 -38.75,10.5 -51.25,12.75 -5.5,1.25 -15,3.75 -21.25,6 -14,4.75 -42.25,12.25 -68.75,18 -11,2.25 -22,5.25 -24.5,6.5 -7.25,3.75 -0.5,9.5 11,9.5 5.25,0 15,2 21.5,4.75 6.5,2.5 18.75,5.5 27,6.5 8.25,1 24.5,4.75 36.25,8.5 50.75,16.5 102.75,30.25 114,30.25 2.5,0 8.25,2.25 12.25,5 4.25,2.75 11,5 15.5,5 4.25,0 11,1.25 15,2.75 3.75,1.5 16.5,4.75 28.25,7.5 31.5,6.75 42.75,10 52.5,14 4.75,2.25 16.75,5.5 26.25,7.25 9.75,2 27.75,6.25 40,9.75 12.5,3.5 28.25,8 35,9.75 7,2 16,4.75 20,6 7,2.5 28.75,7.25 60,13.5 7,1.25 24.25,6.25 38.75,11 14.25,4.75 29.25,8.5 33.25,8.5 8.25,0 49.75,11.5 59.75,16.5 3.75,2 10.25,3.5 14.25,3.5 4.25,0 14.25,2.25 22,4.75 8,2.75 22,6 31.25,7.5 9,1.5 24.75,5.75 35,9.25 10,3.5 22.5,7 27.5,7.75 13,1.75 16.75,7.25 25.75,39 2.75,10 10.75,22.5 24.25,37.75 1,1.25 6.75,3 12.5,3.75 9.75,1.5 11.25,2.5 18.75,16.25 4.5,8 8.25,16.5 8.25,19 0,2.75 -5,7.5 -12.5,12.25 -6.75,4.25 -12.5,9 -12.5,10.75 0,1.75 2.75,8.75 6.25,15.75 3.25,6.75 6.25,14 6.25,15.75 0,2 1.5,6.5 3.5,10 2,3.75 10.25,20 18.25,36.25 20.5,41.5 19.5,40 31.5,51 9.75,9 12.5,10 28,11.5 18.25,1.75 25.75,5.5 34.5,17.25 6.75,9 4.5,15.75 -11.5,33.25 -7.5,8.25 -16.75,21.25 -20.75,28.75 -3.75,7.5 -14.25,24.25 -23,36.75 -17.25,25.25 -22.25,28 -29.75,16.25 -2.25,-3.75 -8.25,-11.25 -13.25,-17 -4.75,-5.5 -11.75,-15.25 -15.5,-21.75 -3.75,-6.5 -7.75,-11.75 -8.75,-11.75 -1.25,0 -7.75,3.75 -14.75,8.5 -7.25,4.5 -16,9 -19.5,10 -10.5,2.5 -10.25,7.75 0.75,19 5.75,6 10.25,11.75 10.25,13 0,1.5 8.5,13.25 19.25,26.25 20.75,25.5 23.25,33.5 14,44 -5.25,6 -20,27.25 -33.75,49.25 -4.75,7.5 -13.25,21.25 -19,30.25 -5.75,9 -10.5,17.25 -10.5,18.25 0,1.25 -4.25,7.25 -9.5,13.75 -5.25,6.25 -10.75,14.5 -12.5,18.5 -1.5,3.75 -6,8.25 -9.5,9.75 -6,2.75 -7.25,2.25 -13.25,-4.5 -52.25,-60.75 -55.25,-64.75 -81.5,-103.75 -6,-9 -15.25,-21.5 -20.25,-27.5 -5,-6 -10.75,-14.5 -12.5,-19 -2,-4.25 -7,-13.25 -11.5,-19.75 -4.5,-6.75 -11.5,-18.75 -16,-27.25 -4.25,-8.25 -12.75,-23.5 -19,-33.75 -6.25,-10.5 -12.5,-23 -14.25,-28.25 -1.75,-5 -4,-9.75 -5.25,-10.5 -2.25,-1.25 -10,-17 -34.75,-69.25 -5.5,-12 -10.25,-25 -10.25,-28.75 0,-4 -1.75,-10.25 -4,-14.5 -5.75,-11 -14.5,-35 -20.75,-56.25 -3,-10.25 -8.75,-29 -13,-41.25 -11.25,-33 -28.75,-115.5 -31.5,-147 -1.75,-19.25 -0.5,-18.25 -28.25,-25.5 -9,-2.25 -23,-6.25 -31.25,-9 -8.25,-2.5 -24,-6.5 -35,-8.75 -22.25,-4.5 -38.5,-9 -50.5,-13.75 -15.5,-6.25 -18,5.5 -9.25,45.75 2,9.25 3.5,21.25 3.5,27 0,5.5 5,30.75 11,55.75 6,25 13,55.5 15.25,68 2.25,12.25 6.25,29.25 8.5,37.5 9.25,30.5 12.5,42.75 14.25,52.5 2,11.75 9.5,33.75 22,64.5 5,12 9,24 9,26.25 0,2.25 2.25,7.5 5,11.75 2.75,4 5,9.25 5,11.5 0,2.25 2.25,6 5,8.5 2.75,2.5 5,6.5 5,9 0,5.5 5.75,18.5 25.5,57.5 8,16 14.5,30.75 14.5,33 0,2 1.5,5 3.5,6.5 1.75,1.5 8.75,13.75 15.25,27.25 6.75,13.25 14.5,27.5 17.5,31.75 3.25,4 8.75,13 12.5,20 3.75,6.75 10,16.5 13.75,21.25 3.75,4.75 10,14.25 13.75,21.25 4,6.75 10.25,16.5 14.25,21.25 10,12.75 31.75,42.25 38.5,52.5 19.25,28.75 35.75,49 59.5,73.25 21.5,22 25.25,29.5 17,34 -4.5,2.5 -42.25,5.75 -116.75,10.25 -23.25,1.25 -46.25,3.5 -50.75,4.75 -4.5,1.5 -19.25,3.25 -32.5,4.25 -13.25,1 -29.25,3.25 -35.5,5 -6.25,2 -16.75,3.5 -23.75,3.5 -6.75,0 -26,2.25 -42.5,4.75 -16.5,2.75 -44,6 -61.25,7.75 -17.25,1.5 -38,4.25 -46.25,6.25 -8.25,2 -19.75,3.75 -25.75,3.75 -6,0 -13.25,1.5 -16.25,3 -3,1.75 -15.5,3.75 -28,4.75 -48.25,3.25 -128,13 -135.75,16.25 -4.5,2 -13.75,3.5 -20.75,3.5 -7,0 -15,1.25 -18,3 -3,1.75 -14,4 -24.25,4.75 -42.75,4.25 -65,7 -67.5,8.5 -1.5,1 -11.5,3.25 -22,5 -10.5,1.75 -22.5,4.5 -26.75,5.75 -16.75,5.75 -44.25,10.75 -77.5,14.25 -19.25,2 -39.5,5.5 -45,7.5 -5.5,2 -14,3.5 -18.75,3.75 -4.75,0 -11.5,1.75 -15,3.75 -3.5,2 -11.25,3.75 -17.5,3.75 -6.25,0 -19.5,2.25 -29.25,5 -10,2.5 -28,5.5 -40,6.5 -12.25,1 -25.25,3.5 -29.5,5.5 -4,2.25 -12.5,4.5 -18.5,5.25 -6.25,1 -11.5,3 -12.25,5 -1,3 2,3.25 17.25,1.75 10.25,-0.75 33.25,-2.75 51,-4 18,-1.5 40.5,-4.25 50,-6 9.75,-2 41.75,-4.75 71.25,-6.5 29.5,-1.5 63.25,-4.25 75,-6.25 11.75,-2 30.75,-4.25 42.5,-5 11.75,-1 31.5,-3.25 44.25,-5.25 12.75,-2 36.75,-4 53.75,-4.5 17,-0.5 38,-2.25 47,-3.5 9,-1.5 59.5,-4 112.5,-5.75 53,-1.5 99,-4 102.5,-5.5 3.5,-1.25 31,-3.25 61.25,-4.5 30.25,-1 60,-3 66.25,-4.5 14.25,-3.25 101.75,-7.75 149.75,-7.75 20,0 58,-1.75 84,-3.75 26.25,-2 77,-3.75 113.25,-3.75 53.5,0 67.5,-0.75 75,-3.75 7.25,-3.25 28,-4.5 103.5,-6.25 52,-1.25 95.5,-2.75 96.75,-3.5 3.25,-2 57.75,-3.75 282.75,-8 328.75,-6.5 1038.5,-2 1107.5,6.75 11.75,1.5 61.25,3.75 110,5 49.5,1 93.25,3.25 98.75,4.75 5.5,1.75 46.5,3.75 91.25,5 44.75,1.25 98.75,3.5 120,4.75 21.25,1.5 69.75,3.75 107.5,5.25 37.75,1.5 80,3.75 93.75,5.25 13.75,1.25 37.5,3 52.5,3.5 51.25,2 78.75,4 86.75,6.5 4.5,1.5 23.5,3 42,3.5 18.5,0.5 63.5,1.5 100,2.5 36.5,1 70.75,2.75 76.25,3.75 5.75,1.25 27,3 47.5,3.75 20.75,1 44,3.25 52.25,5.25 8,2 26.5,4.25 41.25,4.75 14.5,0.75 33.5,3 42.25,5 8.75,2 22.75,3.75 31.25,3.75 25,0 122.25,7.5 130,10 13,4.25 58.75,6 63,2.5 7.5,-6.25 -0.5,-9.25 -28,-11 -16.5,-1.25 -31.25,-3.75 -38.75,-6.75 -6.75,-2.5 -18,-4.75 -25.25,-4.75 -7.75,0 -15.25,-1.5 -18.25,-3.75 -2.5,-2 -8.25,-3.75 -12.25,-3.75 -4.25,0 -15,-2.25 -24.25,-4.75 -9.25,-2.75 -28.25,-5.5 -42.5,-6.5 -14.25,-0.75 -30.25,-3 -35.75,-5 -5.5,-1.75 -16.75,-4 -25,-4.75 -8,-1 -16.5,-3.25 -18.75,-5 -2,-1.75 -11.5,-4 -21.25,-5 -9.5,-1 -23.75,-3.25 -31.25,-5.25 -7.5,-1.75 -25.5,-4 -40,-5 -14.5,-1 -31.75,-3.25 -38.75,-5.5 -6.75,-2 -21.5,-4.5 -32.5,-5.5 -11,-1.25 -23.25,-3.25 -27.5,-4.75 -4,-1.5 -25,-4.5 -46.25,-6.75 -21.25,-2.25 -44.25,-5.25 -50.75,-6.5 -6.5,-1.25 -18.75,-2.25 -27,-2.25 -8.25,0 -18.75,-1.5 -23.5,-3.5 -4.75,-2 -17.75,-4.5 -29.25,-5.5 -11.5,-1 -23.5,-2.75 -27,-4 -3.5,-1.5 -21.5,-4 -40,-6 -18.5,-2 -41.5,-4.75 -51.25,-6 -9.5,-1.5 -29.25,-3.75 -43.75,-5 -14.5,-1 -30.25,-3.25 -35,-4.75 -4.75,-1.25 -21,-3.75 -36.25,-5.25 -15,-1.25 -35.25,-3.75 -45,-5 -9.5,-1.25 -39.25,-3.5 -65.75,-5 -26.5,-1.25 -53,-3.25 -58.75,-4 -11.75,-1.75 -21.75,-7 -21.75,-11.75 0,-1.5 7,-10.25 15.75,-19.25 8.75,-9 25,-27.5 36.25,-41.25 11.25,-13.75 24.25,-29.5 29.25,-35.25 4.75,-5.75 8.75,-11 8.75,-12 0,-1 6,-9.25 13.25,-18.5 7.25,-9.25 17.75,-24.75 23.5,-34.5 5.75,-9.75 12.5,-19.25 14.75,-21.25 2.25,-1.75 6.25,-8 8.75,-13.5 2.5,-5.5 10.25,-17.75 17.25,-27.5 6.75,-9.5 12.5,-19 12.5,-21 0,-2 3.5,-9.25 8,-16.25 4.25,-7 14.5,-25.5 22.5,-41.25 8,-15.75 15.5,-29.75 16.75,-31.25 1.25,-1.5 4.75,-10.75 7.75,-20.25 3.25,-9.75 7.25,-19.25 8.75,-21.25 4.25,-5.5 16.25,-32.5 16.25,-36.75 0,-2 1.5,-7.25 3.5,-11.5 13,-28.5 26.5,-61.75 26.5,-65 0,-2.25 3.75,-15.5 8.5,-29.75 4.75,-14.25 9.25,-30.25 10.25,-35.75 1,-5.5 3.75,-16.75 6.25,-25 2.5,-8.25 5.25,-20.25 6.25,-26.75 0.75,-6.5 4.25,-20 7.75,-30 6.5,-18.5 17,-72.5 21,-107 1,-10.25 3.5,-29 5.25,-41.5 1.75,-12.25 2.5,-24.5 1.5,-26.75 -2,-5.5 -9.75,-5.5 -17,0.5 -3.25,2.5 -11,5.5 -17.25,6.5 -6.25,1 -14.25,3.25 -17.75,5.25 -3.75,1.75 -14.25,4 -23.75,5 -9.5,1 -20.5,3.5 -24.75,5.5 -4,2.25 -18.25,7 -31.25,10.75 l -23.75,6.5 -1.75,14.75 c -3.25,25.5 -9.5,58.25 -19.75,101 -11.25,47.75 -12,49.75 -21.5,76.25 -4.25,11 -8.25,25 -9.25,30.75 -0.75,6 -2.75,12.75 -4,15 -4.25,8 -12.5,28.75 -12.5,31.75 0,1.75 -2.75,8.25 -6.25,14.75 -3.5,6.5 -6.25,14 -6.25,16.5 0,4 -38.5,85.25 -47.25,100 -1.25,2 -5.75,11.25 -10,20.25 -4.25,9 -11,20.75 -15.25,26 -4,5.25 -7.5,10.75 -7.5,12.75 0,1.75 -6,12 -13.25,22.75 -7.25,10.75 -15.5,24.25 -18.5,30 -3,5.5 -9.5,15.75 -14.5,22.5 -28.75,38.5 -36.25,48 -48.75,62 -7.5,8.5 -22.75,25.75 -33.75,38.25 -19.25,22.5 -26,27.5 -31.25,24.25 -1.5,-1 -6.25,-9 -10.25,-17.75 -4.25,-8.75 -10.25,-19.25 -13.25,-23 -3.25,-3.75 -9,-13 -12.75,-20.5 -3.75,-7.5 -10.5,-19.5 -15,-26.25 -4.5,-7 -11.25,-17.5 -15,-23.75 -3.75,-6.25 -10.5,-17.5 -15.25,-25 -13.5,-21.5 -12.25,-26.75 11.5,-55 10.75,-13 19.75,-25 20,-26.5 0,-1.5 2.25,-5.75 5.25,-9.5 8.5,-10.75 5.25,-13.25 -19.5,-14.5 -12,-0.75 -23.75,-0.5 -25.75,0.75 -2.25,1 -9,8.25 -15,15.75 -6.25,7.75 -13.5,14.75 -16,15.5 -6.75,2.25 -14.5,-7.5 -26.75,-32.75 -5.25,-11 -13.75,-26.75 -18.5,-35 -4.75,-8.25 -10,-17.75 -11.5,-21.25 -1.5,-3.5 -4.75,-8.75 -7.5,-11.75 -3,-3 -4.75,-7.75 -4.25,-11.25 0.75,-5 2.25,-5.75 13.25,-6.5 20,-1 22.5,-2.25 34,-17.25 13.25,-17.5 14.25,-19.25 26.75,-44.75 5.5,-11.25 11,-21 12.75,-22 1.5,-1 2.75,-3.75 2.75,-6.25 0,-2.5 2.5,-7.75 5.75,-11.75 4.75,-6.25 5.5,-9.75 5,-27 -0.5,-12.25 -2,-21.25 -4,-23.75 -2,-2.25 -6,-8.25 -9,-13.25 -5.5,-9.25 -5.5,-9.25 -0.75,-18.75 2.75,-5.25 6.5,-13 8.25,-17 4.25,-9 13,-11 20,-4.75 7.25,6.5 18.75,5.5 27,-2.5 6,-5.75 7.25,-9.25 8.5,-25 1.5,-21.75 14.5,-60.75 22,-67.25 3,-2.25 7.25,-4.25 9.75,-4.25 2.5,0 8.75,-1.75 14,-4 5.5,-2.25 16.5,-5 24.75,-6.25 27,-4 62,-11.75 88.75,-19.5 14.5,-4.25 28.5,-7.75 31.25,-7.75 2.75,0 7.5,-1.75 10.5,-3.75 3,-2.25 13.25,-4.75 22.5,-6 9.25,-1.25 21.25,-4 26.25,-6.25 5.25,-2.25 11.75,-4 14.5,-4 3,0 8.75,-1.75 12.75,-4 4.25,-2 13,-4.75 19.25,-6 38,-6.5 57.5,-10.75 64.25,-13.75 4.25,-1.75 11.75,-4 17.25,-5 5.25,-0.75 13,-3 17.5,-5 10.5,-4.5 33.75,-10.25 55.25,-14 9.75,-1.75 19.75,-4.25 22.5,-6 8,-4.75 37.5,-13 71.25,-20.25 17.25,-3.5 34,-8 37.5,-9.75 3.5,-1.75 10.75,-3.75 16.5,-4.5 5.5,-1 13.25,-3.25 17.5,-5.25 4,-2 14,-4.25 22.25,-5.25 8.25,-1 19.25,-4 24.25,-6.5 5,-2.5 12.5,-4.75 16.25,-4.75 3.75,0 12.5,-2.25 19.5,-4.75 20,-7.5 28.5,-9.75 52.25,-14 12.25,-2 23.75,-5 25.5,-6.5 1.75,-1.5 9.5,-3.25 17,-4 14.75,-1.5 21.5,-5.75 16,-10 -1.75,-1.25 -14,-4.75 -27,-8 -13,-3 -28.75,-7.25 -35,-9 -29,-9 -48.5,-14.25 -76.75,-21 -16.5,-4 -32.5,-8.5 -35.25,-10 -3,-1.5 -8,-2.75 -11.75,-2.75 -3.5,0 -10.5,-1.75 -15.75,-4 -5,-2.25 -16.25,-5 -25,-6.25 -8.75,-1.25 -19,-4 -23,-6 -4,-2 -10.75,-3.75 -14.75,-3.75 -4.25,0 -12,-1.5 -17,-3.5 -21.25,-8 -51.5,-16.5 -58.25,-16.5 -4,0 -11.75,-1.75 -16.75,-3.75 -5.25,-2 -16.75,-5.25 -25.75,-7.25 -9,-1.75 -25.75,-6.5 -37.5,-10 -11.75,-3.75 -30.75,-8.75 -42.5,-11.25 -11.75,-2.5 -30.25,-7.5 -41.25,-11 -11,-3.25 -25,-7 -31,-8 -6,-1 -14.75,-3.5 -19.25,-5.25 -4.5,-2 -11.75,-3.5 -16,-3.5 -4.25,0 -11.75,-1.75 -17,-4 -5,-2 -16.5,-5.5 -25.5,-7.25 -55,-12 -87.25,-19.75 -95,-23 -8.5,-3.75 -17.25,-6.25 -50,-14.75 -9,-2.25 -21.25,-6.5 -27.25,-9.5 -11.25,-5.25 -11.25,-5.25 -18.25,-30.25 -3.75,-13.75 -7,-27.5 -7,-30.25 0,-12.75 -16.5,-25 -40,-29.75 -13.25,-2.5 -14,-3.25 -20.5,-16.25 -9.5,-18.25 -9.25,-24.25 1.25,-28.75 13.5,-5.5 15.75,-9.75 12.25,-22.75 -1.75,-6 -3,-13.25 -3,-15.75 0,-2.5 -4,-9.5 -8.75,-15.5 -4.75,-6 -8.75,-12.25 -8.75,-13.75 0,-1.5 -2.75,-8 -6.25,-14.5 -3.5,-6.5 -6.25,-13.5 -6.25,-15.75 0,-2 -4.25,-9 -9.5,-15.5 -5.25,-6.25 -12.5,-16.25 -16.25,-22 -4.5,-7 -9,-11 -13.75,-12 -3.75,-0.75 -12,-3 -18.25,-5 -6.5,-2 -14.75,-3.75 -18.25,-3.75 -7.25,0 -19,-10.5 -19,-16.75 0,-3.75 6.75,-12.5 30.5,-40.25 8,-9.25 14.5,-18 14.5,-19.75 0,-1.5 4.25,-8.25 9.5,-15 5.25,-6.5 12.75,-17.75 16.75,-24.5 4,-7 10.25,-16.5 13.75,-21.25 3.75,-4.75 16.25,-22.75 28,-40 11.75,-17.25 24.75,-36.25 29.25,-42.5 4.25,-6.25 11.75,-17 16.75,-24.25 4.75,-7 10.25,-14.25 12.25,-15.75 2,-1.75 3.75,-5.25 3.75,-8 0,-2.75 2.5,-8.25 5.75,-12 5,-6.25 15.25,-22 24.25,-37.25 8.25,-14 47.25,-72 54.75,-81.25 4.25,-5.25 7.75,-10.75 7.75,-12 0,-1.5 3.75,-7 8.25,-12.75 4.25,-5.5 11.5,-15.5 15.5,-22 20.5,-32.5 39.25,-59.5 44,-63.75 3,-2.5 7.5,-9.5 10,-15.25 4.25,-10 17,-28.25 40,-57.5 5.5,-7.25 9.5,-14.25 8.5,-15.75 -2.25,-3.5 -3.75,-3 -15,5.25 z m -1044.25,271.5 c 1.25,4.25 -6.5,7.25 -10,3.75 -1.5,-1.5 -1.75,-3.75 -0.75,-5.5 2.25,-3.5 9.25,-2.25 10.75,1.75 z m 26.75,-1.5 c 1,1.25 -0.25,4.75 -2.75,7.5 -3.75,4.25 -4.75,4.5 -8,1.25 -2,-2 -3,-5.5 -2.25,-7.5 1.75,-4.5 10.5,-5.5 13,-1.25 z m -101.25,24.5 c 0,1.25 -3,4.5 -6.75,7.5 -5.75,4 -6.5,5.75 -4.25,9.5 1.5,2.5 6.25,4.75 10.75,5.25 8.5,1 10.5,4.5 3.5,6.5 -2.5,0.5 -19.75,2 -38.25,2.75 -21.25,1.25 -36.25,3.25 -40.75,5.5 -4.25,2.25 -12.5,3.25 -21.25,2.75 -13.75,-0.75 -14.25,-1 -15,-8.25 l -0.75,-7.5 18.25,-0.25 c 40.75,-0.75 63.5,-6.5 82,-21 6.75,-5.25 12.5,-6.5 12.5,-2.75 z m 146.25,17.75 c 6.75,5.5 1.25,6.75 -28,5.5 -27,-1 -28,-1.25 -25.5,-6 2.5,-4.5 4.75,-4.75 26,-4 14.5,0.75 24.75,2.25 27.5,4.5 z m -63.75,5 c 0,1.25 -5,2.5 -11.25,2.5 -6.25,0 -11.25,-1.25 -11.25,-2.5 0,-1.5 5,-2.5 11.25,-2.5 6.25,0 11.25,1 11.25,2.5 z m 245.75,39 c 12.5,5 27.5,11 33,13.5 5.5,2.5 12.75,5.25 16.25,6.25 4.75,1.5 17.75,8.75 27.25,15.5 0.5,0.5 0.5,1.25 0,2 -2,1.75 -24.5,-5.75 -31.75,-10.75 -3.75,-2.75 -11.5,-5.75 -17.25,-6.75 -6,-1 -11.5,-2.75 -12.25,-4 -2.5,-4 -26.25,-13.75 -38.25,-15.75 -12.75,-2 -16,-3.5 -14,-6.75 2.75,-4.25 13.75,-2.25 37,6.75 z m -634.5,-1.5 c 0,2.5 -3,4 -10,4.5 l -10,0.5 6,-5 c 6.75,-5.75 14,-5.75 14,0 z m -3.25,23.5 c 9.5,0.25 10.25,2.25 4,11.5 -9,13 -13.75,15 -19.25,7.75 -3.25,-4.25 -6,-5.5 -9.75,-4.25 -8.25,2.75 -9,-3 -1.25,-11 5.5,-5.75 8.25,-7 13.25,-5.75 3.5,0.75 9.25,1.75 13,1.75 z m 59,1 c 5.25,4 5.5,5 2.25,7.75 -3,2.5 -5,2.5 -9.25,-0.25 -4.75,-2.75 -6,-2.5 -9.25,2.25 -4.25,6.25 -13.75,7.5 -18,2.5 -3.25,-4 1,-9.25 7.25,-9.25 2.25,0 6.25,-1.75 9,-3.75 6.25,-4.75 11,-4.5 18,0.75 z m -114.5,5 c 0,1 -3.5,6 -7.75,11.25 -5.5,6.75 -7.25,11 -6.25,15 1.5,5.75 -5.75,26.75 -9.25,26.75 -2.5,0 0,-25.5 3.75,-38.25 1.75,-5.75 5.5,-11 9.25,-13 7.5,-4 10.25,-4.5 10.25,-1.75 z m 9,17 c -1.25,3.25 -2.5,3.5 -4.5,1.5 -1.5,-1.5 -2,-4.5 -1,-7 1.25,-3.25 2.5,-3.5 4.5,-1.5 1.5,1.5 2,4.5 1,7 z m 49.75,6 c 2.5,4 -2.25,8.5 -16.75,15.75 -7.25,3.75 -15.25,8.25 -17.5,9.75 -5.5,4 -6.75,2.5 -7.5,-8.25 l -0.75,-8.5 10.75,0.75 c 8.5,0.5 12.5,-0.75 18.5,-5.75 8,-6.75 10.75,-7.5 13.25,-3.75 z m -57.75,29 c 3.75,1.5 5.75,8.5 2.5,8.5 -3.75,0 -11,-5.5 -9.75,-7.75 1.75,-2.75 2.25,-2.75 7.25,-0.75 z m -14.75,9.25 c 0,6.5 -5,6.25 -5.75,-0.5 -0.75,-4 0.25,-5.5 2.5,-4.75 1.75,0.75 3.25,3 3.25,5.25 z M 4667.5,1905 c 7.75,6 4.5,10 -6.75,8.25 -8.5,-1.25 -10.5,-5 -5.25,-10.25 4,-4 4.5,-3.75 12,2 z m -83,34.25 c -1,8.5 -5.5,8.25 -7,-0.5 -1,-5.25 -2.75,-7.5 -6.25,-7.75 -9.5,-0.5 -10,-1.25 -3.75,-6.25 l 6,-5.25 6,6.75 c 3.5,4 5.5,9.25 5,13 z m 35.5,10.25 c 0,5.25 -6.75,15.5 -10.25,15.5 -5.25,0 -5.25,-8 0.25,-14 7,-7.25 10,-7.75 10,-1.5 z m -75.5,4.75 c 0.5,2.75 3.25,7.5 6.25,10.5 3,2.75 9.25,8.5 13.75,13 9.25,9 14.5,8.25 18.75,-2.75 3.25,-8.25 7.5,-8.75 8.75,-0.75 0.5,3.5 -1.75,7 -7,10.75 -4,3 -9.25,8.5 -11,12 -5,9.25 -43,48 -47.25,48 -1.75,0 -4.5,-1.25 -6.25,-3 -2,-2 -5.25,-0.25 -13,7.25 -10.75,10.75 -12.25,15 -6.25,17.25 5.25,2.25 4.75,8.5 -1.75,15.25 -8,8.5 -11.25,7 -13.25,-5.75 -1.5,-11 -1.25,-12 7,-19.5 16.5,-15.25 18,-19.5 18.5,-52.25 0.25,-26 1,-30.5 5.25,-34.75 4.5,-4.75 5.25,-4.75 11.25,-0.75 7.5,4.75 11.75,0.75 6,-5.75 -2.5,-3 -3,-6 -1.5,-10 2.75,-7.25 10.75,-6.5 11.75,1.25 z m 485.5,83.5 c 4,4 8,10 9,13 0.75,3 3.5,7.75 6,10.5 8.5,9.5 10.25,22.5 6.25,49 -2,13.25 -5,27.5 -6.5,31.25 -1.5,4 -3.75,26.25 -5,49.75 -3.75,63 -9,76 -36.75,89.25 -6,3 -12.5,8 -14.75,11.25 -2.25,3.25 -9.25,9 -15.5,12.5 -6.25,3.75 -14.25,8.75 -17.5,11.25 -6.5,4.75 -16.5,6 -19,2 -0.75,-1.25 -8,-6.5 -15.75,-11.75 -7.75,-5 -18.5,-13 -23.75,-17.5 -5,-4.5 -10.75,-8.25 -12.75,-8.25 -2,0 -12.75,-7 -23.75,-15.75 -11.25,-8.5 -29.5,-22.25 -40.5,-30.5 -11.25,-8.5 -22.5,-19.5 -26.25,-25.25 -6.5,-11.25 -13.5,-38.5 -13.5,-54.75 0,-15.5 17,-33 53.75,-55.5 11.75,-7.25 35.25,-18.25 39,-18.25 2.25,0 6,-2.25 8.5,-5 2.5,-2.75 5.5,-5 6.75,-5 1.5,0 5.25,-2.25 8.75,-5 3.5,-2.75 9.25,-5 13,-5 3.5,0 10,-2.25 14,-5 4.25,-2.75 9.75,-5 12.25,-5 2.75,0 9,-2.75 14,-6.25 10.25,-7 36.25,-13 58.25,-13.5 13.5,-0.25 15.5,0.5 21.75,7.5 z m 257.5,0 c 19.25,8.25 23.75,11 24.5,15.75 1,5.25 -5.5,13.25 -12.75,15.5 -3,1 -10.75,6 -17.5,11.25 -6.75,5.5 -13.5,9.75 -15,9.75 -1.75,0.25 -10.75,7.5 -20.5,16.25 -16.25,15 -46.5,33 -51,30 -4.75,-2.75 -4.75,-22.5 -0.25,-37.25 2.5,-8.5 5.75,-19.75 7.25,-25.5 1.75,-6.75 6.75,-14.25 14.5,-21.75 6.75,-6.5 14,-14 16.25,-16.75 4,-4.5 6.5,-4.75 23.75,-3.5 10.75,1 24.5,3.75 30.75,6.25 z M 4437.25,2086 c 6.75,7.25 5,12.25 -3.75,10 -4.25,-1 -7.75,0 -11.25,3 -3.75,3.25 -5.5,3.75 -7.75,1.5 -2.25,-2.25 -1,-5 5.5,-11.75 4.75,-4.75 9.25,-8.75 10,-8.75 1,0 4.25,2.75 7.25,6 z m -18.5,72.25 c 0,6.5 -5,6.25 -5.75,-0.5 -0.75,-4 0.25,-5.5 2.5,-4.75 1.75,0.75 3.25,3 3.25,5.25 z M 4435,2172 c 0,2.5 -1.5,6.5 -3.25,9 -3,4 -3.5,4 -7.75,-0.75 -3.75,-4.25 -4,-5.75 -1.5,-9 4.5,-5.25 12.5,-4.75 12.5,0.75 z m -22.5,22.5 c 0,7.25 0.75,8 5,6.75 6,-1.75 6.25,0.5 1.25,7.25 -2,2.75 -3.75,7 -3.75,9.75 0,2.5 -4,9.5 -8.75,15.25 -4.75,6 -8.75,13.25 -8.75,16.25 0,3 -2.75,8 -6,11 -3.25,3 -6.25,7.75 -6.75,10.5 -0.75,2.75 -2.75,5 -4.75,5 -5.75,0 -6,-10.5 -0.25,-17.75 3,-4 5.25,-10.25 5.25,-15.5 0,-5 1.5,-10.75 3.5,-12.75 4.25,-4.75 11.5,-23.5 13.25,-34 0.5,-4.25 -0.5,-10.75 -2.75,-14.75 -5.75,-11 -1.75,-13.5 6.25,-3.75 4.5,5.5 7.25,11.5 7.25,16.75 z m 276.75,112.75 c 14,7.5 60.25,58 70.5,77.5 1.5,2.75 5,5.5 7.5,6.5 2.75,0.75 9.75,7.75 15.5,15.75 6,7.75 19.5,24 30.25,36 10.75,11.75 19.5,23.75 19.5,26.5 0,2.5 -3,8.75 -6.75,13.75 -4,4.75 -11.5,15.25 -17,23 -5.5,8 -14.75,20.25 -20.75,27.5 -10.5,13 -10.5,13 -28.5,15 -10,0.75 -20.25,2.75 -22.75,4.25 -7.25,3.75 -70.75,8.75 -92,7.25 -11.5,-1 -21,-3 -23.75,-5.25 -2.75,-2 -9,-6 -14.25,-8.5 -5.25,-2.75 -14,-9.75 -19.5,-16 l -10.25,-11 1.25,-20.25 c 0.75,-11.25 3.25,-27.75 5.25,-36.75 2.25,-9 5.75,-24.25 7.75,-34.25 4,-20.5 9.75,-38.5 14.75,-46.5 2,-3 6.25,-14 9.75,-24.25 11.25,-32.75 16.25,-41.75 27.5,-49.75 9,-6.5 12.25,-7.5 23,-6.75 7,0.5 17.25,3.5 23,6.25 z m 928.75,22.5 c 2.25,4.75 5.5,9.75 6.75,11 1.5,1.5 2.75,5 2.75,7.75 0,3 2.75,11.25 6.25,18.5 8.75,19 8.25,22.5 -6.75,37 -15.5,15 -36.5,23.5 -57.25,23.5 -16.25,0 -32,-4 -33.75,-8.75 -0.75,-1.75 4.25,-10.75 11.25,-19.5 7,-9 12.75,-17.25 12.75,-18.5 0,-1.25 5.25,-9.25 12,-18 6.5,-8.75 14,-19.5 16.5,-23.75 2.5,-4.25 6.25,-10.25 8.25,-13.5 5.25,-8.75 15.75,-6.5 21.25,4.25 z M 5170,2377 c 9,2.5 19.25,6.25 23.25,8.75 3.75,2.25 9.75,6.25 13.75,8.5 3.75,2.5 9.25,5.5 12,7 3,1.25 11,8.75 17.75,16.25 42.5,47.5 55.75,91.25 44.25,145.25 -3.5,17 -5.25,22.25 -13.5,39.75 -7,15.5 -12,22.25 -31.75,42.75 -24.25,25.25 -38,32.75 -78.25,44 -21,5.75 -65.25,3.75 -79.5,-3.75 -5.75,-3 -13.5,-5.5 -17,-5.5 -9.75,0 -20.5,-6.75 -40,-25.25 -10,-9.5 -19.25,-17.25 -20.5,-17.25 -4,0 -20.5,-26.5 -20.5,-32.75 0,-3.25 -2,-10 -4.75,-14.75 -14.5,-27.25 -16.25,-70.5 -4.25,-105 3.75,-10.25 7.75,-22.75 9.25,-27.5 2,-6 12,-17.75 32,-37.5 25.75,-25.25 31.25,-29.5 45.5,-34.5 8.75,-3.25 19.5,-7.25 23.5,-9.25 11.5,-5.25 68,-4.75 88.75,0.75 z m -825,53.5 c -0.25,9.5 -11.75,50.5 -14.5,51.5 -5.5,1.75 -8.25,-9 -5.25,-20.25 1.5,-5.75 3.5,-11.75 4.5,-13 1,-1.5 3.25,-7.25 5,-13.25 3.25,-11.25 10.25,-14.75 10.25,-5 z m -50,47.5 c 3.75,3.25 9,7 11.5,8.5 6,3.75 2.5,7.5 -9,9.5 -8.5,1.5 -9,1.25 -12,-8.75 -2.75,-9.25 -2.5,-14.75 1.25,-14.75 0.75,0 4.5,2.5 8.25,5.5 z m 1316.5,88 c 6.75,2 17,5 22.75,6.5 7.75,2 11.75,4.75 14.5,10 2.25,4.25 5.5,7.5 7.5,7.5 7.75,0 13.75,12.5 13.75,28.5 0,13.75 -1.5,24.25 -10.25,74 -1.5,7.5 -3.5,14.75 -4.5,16.25 -1.25,1.25 -4.5,10 -7.5,19.25 -2.75,9.25 -8,22 -11.5,28.5 -3.5,6.5 -6.25,14 -6.25,16.5 0,2.75 -2,8 -4.75,11.5 -2.5,3.75 -5.25,10.25 -6.25,14.25 -1,4.25 -4.25,10.75 -7.25,14.5 -5.25,6.75 -6.5,7 -29.25,7.25 -20.25,0.5 -25,-0.25 -31.25,-4.75 -4.25,-2.75 -11.75,-7.75 -16.75,-11 -5,-3.25 -19,-17.75 -31.25,-32.25 -12,-14.5 -29,-33.75 -37.5,-42.75 -8.75,-9 -15.75,-18.25 -15.75,-20.5 0,-2.25 -4,-8.5 -8.75,-13.75 -17.25,-18.25 -46.75,-54 -49.5,-59.75 -2,-4.25 -1.5,-7 1.75,-11.25 2.25,-3.25 7,-10 10.5,-15.25 3.25,-5.25 7.5,-9.75 9.25,-10.25 1.75,-0.5 13.75,-2.75 26.75,-5.25 13,-2.5 28.75,-6.5 34.75,-9 6,-2.75 13.5,-4.75 17,-4.75 3.25,0 10,-1.75 14.75,-3.75 5,-2 18.75,-5 30.5,-6.5 12,-1.5 25.25,-3.5 29.25,-4.75 12,-3.25 32,-2.75 45.25,1 z m -939.75,138 c 0.75,2.25 -1.25,6.5 -4.75,10.5 -3.25,3.75 -8,11 -10.25,16.25 -5,11.25 -28.25,36.75 -33.5,36.75 -4,0 -13,-18.5 -13.25,-26.75 0,-11.25 14.75,-32.25 26.25,-37.25 11,-4.75 33.5,-4.5 35.5,0.5 z m 592.25,85 c 5.5,2.25 14.5,7.75 20.25,12.5 5.75,4.75 12.25,8.5 14.25,8.5 2.25,0 8.75,4.25 14.75,9.5 5.75,5.25 15,12.25 20.5,15.75 25.75,16.25 41,26.5 51.25,34.75 17.25,13.5 27,20 30,20 5.25,0 30,25.75 37.5,38.75 4.25,7.25 7.5,16.5 7.5,20.75 0,4.25 2.25,13.75 5.25,20.75 5,13 5,13.25 0.25,19.5 -7.75,10.75 -41,37.5 -48.5,39 -3.75,1 -11.5,5.25 -17.5,9.75 -6,4.5 -21.5,13.5 -34.5,20 -47.75,23.75 -59.5,28.25 -79.25,30.25 -9.25,1 -20.75,4 -25.25,6.5 -12.25,7 -28.25,6.25 -38,-1.75 -9,-7.75 -20.5,-29.25 -25,-47.75 -2.75,-10.25 -2.75,-16.5 -0.5,-30 1.5,-9.25 4,-30 5.5,-45.75 5,-55.25 10.25,-93.75 15.25,-108.75 2.5,-8.25 4.75,-16.5 4.75,-18.25 0,-11.5 11.25,-38.5 19.75,-47.75 5.25,-5.75 10,-10.25 10.75,-10.25 0.75,0 5.75,1.75 11,4 z m -209.5,190.5 c 0.5,31.75 -0.25,57.25 -1.5,58.75 -1.5,1.75 -3.25,6.5 -4,11 -1,4.25 -3.5,9.25 -5.5,11 -2,1.5 -3.5,4.25 -3.5,6 0,2 -6.75,10.25 -15.25,18.5 -16.75,17 -23.25,18.75 -37.75,10.5 -4.5,-2.5 -12.75,-5.5 -18.25,-6.5 -14.75,-2.5 -42,-11.5 -46.5,-15.5 -2,-1.75 -5.25,-3.25 -7,-3.25 -1.75,0 -7.25,-2 -12.25,-4.75 -5,-2.5 -12.5,-6.25 -16.75,-8 -12.75,-6 -10,-21.75 4.5,-26.25 2.75,-0.75 13,-8.25 23,-16.25 9.75,-8.25 19,-14.75 20.25,-14.75 1.5,0 7,-4.5 12.25,-10 5.25,-5.5 12,-10 14.75,-10 2.5,0 12.5,-6.75 21.75,-15 9.25,-8.25 18.25,-15 20.25,-15 1.75,0 10.5,-6.25 19.25,-14 13,-11.25 17.25,-13.75 23.75,-13 l 7.75,0.75 z m 624.75,256 c 6.5,9.5 20,20 63.25,48.75 14.75,9.75 22.25,17.5 22.5,22.75 0,4.25 -15.25,18.25 -31.75,29.25 -7,4.75 -19.5,14.25 -27.5,21.25 -8,6.75 -15.5,12.5 -16.75,12.5 -1,0 -7.5,4.5 -14,10 -6.5,5.5 -13,10 -14.25,10 -1,0 -8.75,4.5 -17,10 -8.25,5.5 -16.25,10 -18,10 -1.75,0 -4,1.5 -5,3.5 -2.75,5.25 -54.5,32.25 -67.5,35.5 -3.75,1 -10,4 -13.5,6.5 -6.25,4.75 -9.25,4.75 -102.5,2 -52.75,-1.75 -123,-3.25 -156.25,-3.5 -63.5,-0.25 -68.5,-1.25 -68.5,-11.75 0,-5.5 9.75,-21.75 16.25,-27.25 5,-4 24,-9.75 33.5,-10 8.5,0 15.25,6.75 15.25,15.5 0,12 7.25,16.75 24.25,15.75 15,-0.75 33.5,-4.5 43.75,-8.5 3.25,-1.25 12.5,-3.75 20.75,-5.25 8.25,-1.75 21.75,-6.25 30,-10 8.25,-4 18.5,-8 22.5,-9 11,-2.5 20.5,-12.5 22.25,-23.25 2.25,-15 11,-25.75 27.5,-33.5 8,-3.75 16.25,-6.5 18,-5.75 1.75,0.75 3.5,4.75 4,9.25 0.5,5.25 3.25,9.75 7.75,13.25 6.75,5 7,5 20.5,0.25 7.5,-2.5 19.5,-8.75 26.5,-14.25 7,-5.25 14.75,-9.5 17.5,-9.5 2.5,0 8.25,-3.25 13,-7.25 4.5,-4 11.5,-8.25 15.75,-9.25 8.75,-2 20.75,-10.5 36.75,-25.75 L 5640,3286.5 v -19.75 -20 l 11,-10.75 c 13.75,-14 19.25,-14 28.25,-0.5 z m -1069.75,8.75 c 3.75,2.5 9,5.75 11.75,7.25 7,3.75 7.5,12.25 1.5,20 -8,10 -6.75,21 3,30.25 8.75,8.5 41,28.25 45.75,28.25 1.5,0 4.25,1.75 6,3.75 5,6 64,33.75 71.75,33.75 4,0 14,-3.5 22,-7.5 15.75,-8 29.75,-9.5 36,-4 2.25,1.75 7.5,4.5 11.5,5.75 9.5,3 11.25,11.5 3.75,19.5 -9.25,10 -0.25,26.25 14.5,26.25 3.25,0 12.75,2.75 21.25,5.75 24.75,9.5 47.5,16.25 64.5,19.25 8.75,1.5 20.75,3.75 26.75,5.25 18.25,4 21.25,3 40.5,-13.25 16.25,-13.75 19.75,-15.5 31,-16.5 10.5,-0.75 13.5,0 17.25,4 9,10 8.5,33 -0.75,38 -2.75,1.5 -39.5,3 -93,4 -48.5,0.75 -104,2.25 -123.25,3.5 -19.25,1.5 -50.25,2.5 -68.75,2.5 -28,0 -35.25,-0.75 -42.5,-4.5 -4.75,-2.75 -12,-5.5 -15.75,-6.5 -10.25,-2.5 -46.75,-23.25 -79,-44.75 -9.75,-6.5 -21.5,-13.25 -26,-14.75 -4.25,-1.5 -12,-6 -16.75,-10 -22.5,-18.5 -50,-39.5 -51.75,-39.5 -1,0 -8.25,-5.75 -15.75,-12.5 l -13.75,-12.25 12.5,-12.5 c 6.75,-7 13.5,-12.75 15,-13 1.25,0 7.5,-4 13.75,-8.5 6.25,-4.75 17,-12 24,-16.25 7.25,-4 14.25,-9.25 16,-11.25 1.75,-2 4.5,-3.75 6.25,-3.75 1.75,0 5.75,-2.25 9,-5 7.5,-6 13.25,-6.25 21.75,-0.75 z m 1222.25,105.5 c 6.5,5.25 14.25,12 16.75,15 2.75,2.75 6.25,5.25 8,5.25 1.75,0 8.75,4.5 15.75,10 7,5.5 13.25,10 14.25,10 0.75,0 12.5,8.75 26,19.25 13.5,10.75 29.75,23.25 36,28 6.25,4.5 11.5,10.25 11.5,12.75 0,5.5 -13.5,17 -28.25,24.5 -10.5,5.25 -11,5.25 -69.25,1.5 -32.25,-1.75 -61.5,-4 -65,-4.75 -3.5,-0.75 -35.75,-2.25 -71.75,-3.25 -56,-1.5 -66.25,-2.5 -69.75,-6 -6,-5.75 -3,-10.75 10.75,-18.25 24.75,-13.5 30,-17 65,-43.5 8,-6 19.25,-15.5 25,-20.75 6,-5.25 11.75,-9.5 12.75,-9.5 1.25,0 8,-5.75 15,-12.5 20.75,-20.5 29.5,-22 47.25,-7.75 z M 4454.25,3348 c 4.25,3.25 24,19.75 43.5,37 19.75,17.25 40.5,34.25 46,37.75 5.5,3.5 18.25,12 28.25,18.5 29.25,19.5 23.75,26.25 -21.5,26.25 -14.75,0.25 -48.75,1.75 -75.5,3.75 -26.75,2 -71.5,5 -99.25,6.5 l -50.25,3 -12.5,-9 c -19.75,-14.75 -20.25,-15.5 -10.25,-25.75 4.75,-5 13.5,-12.5 19.75,-16.75 6.25,-4.25 17.25,-12.5 24.5,-18.5 7.25,-6 14.25,-10.75 15.75,-10.75 1.25,0 10.75,-6.5 20.75,-14.5 33.25,-25.75 57.5,-43 60.25,-43 1.5,0 6.25,2.5 10.5,5.5 z"
     id="path66"
     style="fill:#E8ECF4" /><path
     d="m 4528,1980.5 c -1.75,1.75 -3,5 -3,7.75 0,3.25 1.5,4.5 5.75,3.75 4,-0.5 5.5,-2.5 5.5,-6.75 0,-7 -3.75,-9.25 -8.25,-4.75 z"
     id="path67"
     style="fill:#E8ECF4" /><path
     d="m 4546.25,2002.5 c -0.75,1.25 -1,3.5 0,5 2,3.25 8.75,0.25 8.75,-4 0,-4 -6.5,-4.75 -8.75,-1 z"
     id="path68"
     style="fill:#E8ECF4" /><path
     d="m 5102.5,2440 c -16.25,4 -31.25,12.25 -45.5,25.5 -11.75,10.75 -15.25,16 -18.5,27 -7.5,26.75 -8.75,42.5 -4.75,57.5 2.25,7.5 5,17.5 6,21.75 2.75,10 22.25,32 36.75,41.75 15.5,10 45.25,13.5 72.75,8.75 19,-3.25 19.75,-3.75 35.75,-19.75 17.75,-17.25 22.25,-26.25 27.25,-54 3.5,-18.25 0,-45.75 -7.5,-63.5 -5.5,-12.5 -26,-35 -32.25,-35 -2,0 -9.25,-3 -16.25,-6.25 -13.25,-6.5 -35.25,-8 -53.75,-3.75 z"
     id="path69"
     style="fill:#E8ECF4" /><path
     d="m 4608.25,1496.25 c -3,2 -6,7 -7,11 -2,8.75 -4.5,11 -17.25,15.25 -8.5,2.75 -10.25,2.5 -16.75,-2.25 -10,-7.5 -15.75,-6.5 -24.5,4 -8.75,10.75 -9.5,14.75 -3.75,22.75 5,7.25 3,19.75 -4.5,29.25 -4,5.25 -6.75,6.5 -12,5.25 -9.25,-1.75 -12.5,2.5 -12.5,16 0,14.25 5,21.5 16.25,23.5 14.75,2.75 21.25,22 11.25,34.75 -6.5,8.25 -6.25,13.75 1,16.5 3.25,1.25 8,5.5 10.75,9.25 l 5.25,7 10,-4.5 c 17.75,-8 35.5,-0.25 40.25,17.5 1.75,7 2.5,7.25 16.75,7.25 h 14.75 l 1.5,-9.25 c 1.5,-10.25 6,-17 11.5,-17 2,0 6.75,-1.75 11,-4 7,-3.5 8,-3.5 15.75,1.25 11.5,7.25 15,6.75 23.75,-4 8.5,-10.5 9.25,-14.75 4,-21.75 -8.5,-11.25 0,-29.5 15.5,-33.25 9.5,-2.25 9.5,-2.25 10.25,-15.5 0.75,-14.75 -2.25,-20.25 -10.75,-20.25 -9.75,0 -18.75,-13.25 -18.75,-27.5 0,-6.75 1.25,-13 2.5,-13.75 4.5,-2.75 2.75,-10.75 -4,-18.5 -7.25,-8.75 -12.25,-9.5 -24.5,-3.75 -4.75,2.5 -11,3.5 -14.5,2.75 -9.75,-2.5 -19.5,-11.5 -19.5,-18 0,-7.25 -4,-10.25 -16.5,-12 -7,-1.25 -11.75,-0.5 -15.25,2 z m 30,51.25 c 6.5,2.75 12.25,6.25 13.25,7.75 0.75,1.5 4.25,3.5 7.5,5 7.75,2.75 18.5,25 18.5,38.25 0,35.75 -27,63.5 -60,61 -12.5,-1 -16.5,-2.5 -29,-12.25 -17.25,-13.25 -23.25,-25.25 -23.5,-45.5 0,-19.25 5.75,-29.75 25,-46.25 13.5,-11.25 17,-13 26.25,-13 5.75,0 15.75,2.25 22,5 z"
     id="path70"
     style="fill:#E8ECF4" /><path
     d="m 4600.25,1579.5 c -10.75,9.25 -11.25,10.25 -11,23 0.25,11.25 1.25,14.25 8,21 7.25,7 9.25,7.75 24,7.75 15.75,0 16.75,-0.25 23.25,-8.75 13,-16.25 11.75,-35 -3,-46.25 -13,-10 -27.25,-8.75 -41.25,3.25 z"
     id="path71"
     style="fill:#E8ECF4" /><path
     d="m 5641.25,1499.25 c -8.75,1.25 -26.5,17.5 -35,32.5 -6.75,11.5 -8.25,28.5 -3.5,39.25 4.5,9.5 1.25,17 -16,35.5 -8.5,9.5 -18.75,22 -23,28 -4,6 -9.5,12.5 -12,14.25 -2.75,2 -9.25,8.75 -14.5,15.25 -8,9.5 -9.75,13.5 -9.75,22.25 0,6.5 1.75,12.75 4.5,16 4,5 5.5,5.25 19.75,3.25 18,-2.5 26.5,-8.25 24.25,-16.75 -1,-4 0.5,-7 5.5,-11 3.75,-2.75 8.5,-5.25 10.75,-5.25 6.75,0 10.25,-5.25 10.25,-15.25 0,-10.75 2.25,-12.75 16,-14.75 8.5,-1 10.75,-2.75 15,-11.25 l 5.25,-10 22.5,-1.5 c 12.5,-1 24.75,-2.5 27.5,-3.5 9.75,-3.75 21.5,-14.25 30,-27 7.25,-10.75 8.75,-15.25 8.75,-26 0,-21.75 -12.5,-47 -28.75,-58 -7,-4.75 -12.5,-6 -29.25,-6.5 -11.5,-0.5 -24,-0.25 -28.25,0.5 z m 51.5,38.5 c 7,10 4,17.5 -10.25,24.75 -8.25,4.25 -11,4.5 -15.75,2.25 -10.25,-5.25 -14.25,-10.5 -14.25,-18 0,-12 6.25,-16.75 21.5,-16.75 11.75,0 13.75,0.75 18.75,7.75 z"
     id="path72"
     style="fill:#E8ECF4" /><path
     d="m 4109,1502.25 c -0.75,1.25 0.75,5 3.5,8.5 2.75,3.5 5,7.5 5,8.75 0,1.5 2.75,6 6.25,10 3.25,4 9.25,13.25 13,20.25 12.75,23.75 14.75,27 22.5,36.75 4,5.25 9,12.75 11,16.25 2,3.75 9.5,15.5 16.5,26.25 7.25,11 13.25,21.25 13.25,23 0,2 4.25,8.25 9.5,14.25 5.25,6 12.75,16.75 16.75,24 3.75,7.5 10.75,18.5 15.5,24.5 4.5,6 8.25,12 8.25,13 0,1 3.5,8 7.75,15.25 4.5,7.25 12,21 17,30.75 5,9.5 14.5,25.75 21,35.5 6.5,10 12.5,20.25 13.5,22.5 1,2.5 6.75,10.75 12.75,18.25 6.25,7.5 13.25,18.5 16,24.25 2.5,5.75 5.75,11.25 6.75,12 2.25,1.25 23.5,32.75 25.5,37.5 0.5,1.25 4.75,7.75 9.5,14.25 9.5,13 16,15 20.5,6.25 4.75,-8.75 33.5,-44.75 42.75,-53.25 4.5,-4.25 12,-13 16.75,-19.5 4.5,-6.25 9.25,-11.5 10.25,-11.5 1.25,0 8.75,-6.5 17,-14.5 26.25,-25 33,-30.75 41.25,-34.25 10,-4.25 25.5,-20 23.25,-23.5 -1,-1.5 -8,-5.75 -15.5,-9.5 -7.5,-3.5 -14.75,-8 -16.25,-9.75 -4.5,-5.5 -0.25,-12.75 13,-22.25 7,-5 12.25,-10.25 11.75,-11.75 -0.5,-1.5 -7,-6 -14.5,-10 -7.5,-4 -16,-9.5 -19,-12.25 -6.75,-6.5 -10.25,-6 -18.5,2 -8.25,8.25 -20.75,17.75 -25.5,19.5 -2.25,1 -8.5,-2.5 -14.25,-7.5 -6,-4.75 -12,-8.75 -13.25,-8.75 -1.5,0 -7.25,-3.75 -13,-8.25 -5.75,-4.5 -13,-9.5 -16.5,-11.25 -3.5,-1.5 -12.5,-7.5 -20,-13 -7.5,-5.5 -20.5,-14.75 -28.75,-20.5 C 4353,1659 4342.5,1651 4338,1647 c -4.5,-3.75 -9.75,-7 -11.5,-7 -2,0 -9,-4.25 -15.75,-9.5 -11,-8.75 -21,-15.5 -31.25,-21.75 -2.25,-1.25 -12.25,-8 -22.5,-14.75 -10,-6.75 -26,-17.25 -35.75,-23.5 -9.5,-6.25 -20.5,-13.25 -24.25,-15.75 -3.75,-2.75 -7.25,-4.75 -8,-4.75 -0.5,0 -8,-4.5 -16.25,-10 -8.25,-5.5 -16,-10 -17.5,-10 -1.25,0 -11,-6.75 -21.25,-15 -19,-15 -22.5,-16.75 -25,-12.75 z"
     id="path73"
     style="fill:#E8ECF4" /><path
     d="m 4904.5,1520.25 c -2.25,1.25 -15.25,4.75 -28.75,7.5 -13.5,2.75 -26,6.5 -28,8 -1.75,1.5 -8,4.25 -13.75,6 -23.25,6.75 -36,10.75 -47.5,15 l -12.25,4.5 -0.5,21.25 c 0,11.75 0.75,22.75 2,24.25 2.75,4 12.25,4.25 15.75,0.75 4.5,-4.5 60.75,-24.25 86,-30 18.75,-4.25 22,-6.25 24.75,-15.75 5.25,-17 9.5,-26.75 13.75,-31.5 8.25,-9.25 -0.25,-16.75 -11.5,-10 z"
     id="path74"
     style="fill:#E8ECF4" /><path
     d="m 5331,1521.25 c -1,2.5 -0.5,6.75 1.25,9.5 1.75,2.75 4.75,10.25 6.75,17 5.75,19.25 13.25,26 34,31 10,2.5 21.25,6 25,7.75 3.75,2 9.75,3.5 13.25,3.5 3.75,0 10.25,1.75 14.5,3.75 4.5,2 12.5,5.25 18,7.25 5.5,1.75 21.25,7.5 34.75,12.5 13.75,5 26.5,9 28.25,9 4.5,0 27.5,-23.25 29.5,-30.25 2.25,-6.5 0.5,-8 -14.5,-11.75 -6.75,-1.75 -20.25,-7 -30,-11.5 -10,-4.75 -26.5,-11 -36.75,-14 -10.25,-2.75 -22,-7 -26.25,-8.75 -10.25,-4.75 -28.25,-11.25 -38.75,-13.75 -18.25,-4.75 -49,-12.75 -53,-14 -2.75,-1 -5,0 -6,2.75 z"
     id="path75"
     style="fill:#E8ECF4" /><path
     d="m 4082.25,1631.5 c -11.5,13.25 -25.5,29.5 -31,35.75 -5.75,6.25 -13.25,16 -17,21.5 -8.5,12.75 -14,19.75 -35.75,47.5 -9.75,12.5 -18.75,25.5 -19.75,28.75 -2,6.25 -5.75,12.25 -21.75,35.5 -17.25,24.5 -32.5,50 -46.5,78.25 -2,4 -5,9 -6.25,10.75 -1.5,2 -4.75,9 -7,15.75 -2.5,6.75 -7.25,15.75 -10.75,20 -3.5,4.25 -6.5,9.75 -6.5,12 0,2.5 -2.25,7.5 -5,11 -2.75,3.5 -5,7.5 -5,9 0,3.25 -9.25,26 -20,49 -14.5,30.75 -42.5,109.25 -42.5,118.75 0,2.75 -2.25,12.5 -5.25,21.75 -12.75,42.5 -20.75,74.75 -24.75,99 -1.5,9.5 -6,27.25 -10,39.5 -4.75,14 -7.5,27.75 -7.5,36.75 -0.25,7.75 -1.75,23.25 -3.75,34.25 -4.75,26.5 -4.75,43.5 0,45.25 2,0.75 10.75,-0.75 19.25,-3.75 8.75,-2.75 23.75,-6.25 33.25,-7.75 9.75,-1.5 22.5,-4.25 28.75,-6.25 34,-10.5 47,-13.75 52.75,-13.75 10.5,0 19.75,-8.75 19.75,-19 0,-10.75 11.25,-75.75 16.25,-92.25 1.75,-7 6,-23.25 9,-36.25 3,-13 7,-27 9,-30.75 2,-4 5.25,-14 7,-22.5 2,-8.5 6.5,-22.75 10.25,-31.75 3.75,-9 7.75,-19.75 8.75,-23.75 4,-14.75 12.5,-37.75 19.5,-52.5 4,-8.25 10.25,-22.25 14,-31.25 3.75,-9 10.5,-23.5 15.25,-32.5 18.25,-35.75 25.5,-49 30,-56.5 2.5,-4 8.25,-13 12.25,-19.5 4.25,-6.75 10.25,-16.25 13.5,-21.25 3.25,-5 10.5,-17.5 15.75,-27.75 5.5,-10.25 13.75,-22.75 18.25,-27.5 4.5,-4.75 10,-12.25 12,-16.25 4.25,-8.25 23.25,-33.5 38.75,-51.25 14.75,-17.25 30.5,-39.25 30.5,-43.25 0,-2 -1.5,-5 -3.5,-6.5 -2,-1.75 -6.75,-9 -10.25,-16 -3.75,-7.25 -8.75,-15.25 -11,-18 -2.5,-2.75 -9.5,-13.5 -16,-24 -6.5,-10.5 -13.25,-20.5 -15.25,-22 -2,-1.75 -6,-9.25 -9.25,-17.25 -6.5,-16.5 -11.25,-23 -17.25,-23 -2.5,0 -13.75,10.75 -25.25,24 z"
     id="path76"
     style="fill:#E8ECF4" /><path
     d="m 6143,1615.5 c -1.5,1.5 -3,4 -3,5 0,1.25 -4.5,7.75 -10,14.75 -5.5,7 -10,14 -10,15.5 0,1.5 -4.5,8 -10,14.5 -5.5,6.5 -10,12.5 -10,13.25 0,0.5 -5.75,10 -12.5,20.75 -7,10.75 -15,24.25 -18,30 l -5.5,10.5 14.5,20.75 c 8,11.5 19,26.25 24.5,33.25 34.5,43.5 39.25,50.25 66.75,96.5 6,10.25 14.75,24 19,31 9.25,14.25 21.25,36.5 21.25,39.25 0,1 3,6 6.5,11.25 8.75,12.75 43.5,84.5 43.5,89.5 0,2.25 3.75,12.75 8.25,23.25 4.75,10.75 11.5,30 15.25,43 4,13 10.25,32.25 14.25,42.75 4,10.5 10.5,33 14.75,50 4.25,17 8.75,35.5 10,41 8.5,33.5 15,68.5 15,78.75 0,6.75 0.75,14 1.5,16.25 2.25,5.5 19.5,12.75 38,16.25 8,1.25 23.25,6 34,10 10.5,4.25 22.25,7.5 26,7.5 3.75,0 14.75,2.25 24.25,5.25 37.5,11.25 37,11.75 32.25,-30.25 -2,-17.25 -4.75,-35.25 -5.75,-40 -1.25,-4.75 -3.75,-20.5 -5.25,-35 -1.75,-16.75 -6,-35.5 -11.5,-51.25 -4.5,-13.75 -9.5,-32.5 -11,-41.5 -1.25,-9.25 -4.25,-21.5 -6.25,-27.25 -2,-5.75 -3.75,-14 -3.75,-18 0,-4 -2.25,-11.5 -5,-17 -2.75,-5.5 -5,-12.25 -5,-15 0,-3 -1.5,-8.25 -3.5,-12 -2,-3.75 -4.25,-11.5 -5.25,-16.75 -1.75,-10.5 -4.5,-18 -21,-56.25 -5.75,-13 -10.25,-25.75 -10.25,-28.25 0,-4.5 -10.75,-27.25 -16.25,-34.25 -1.75,-2 -5.5,-11 -8.75,-20 -3.25,-9 -9.25,-22.5 -13.5,-30 -4,-7.5 -11.75,-22.25 -17,-32.5 -5.5,-10.25 -12,-22.25 -14.5,-26.25 -2.75,-4.25 -7,-12 -10,-17.5 -10.5,-20.25 -13.5,-25.25 -21.75,-36 -4.5,-6 -8.25,-12.5 -8.25,-14.25 0,-2 -3.75,-7.75 -8.5,-12.75 -4.5,-5.25 -10.25,-13.5 -12.5,-18.25 -5,-11 -13.25,-24.25 -22,-35.25 -3.75,-4.75 -14.25,-18 -23.25,-29.75 -35,-45.75 -69.5,-86 -74,-87 -2,-0.25 -5,0.75 -6.75,2.5 z"
     id="path77"
     style="fill:#E8ECF4" /><path
     d="m 4286.75,1918 c -3.5,4.5 -9.25,13 -13,18.75 -3.75,6 -7.75,10.75 -8.75,10.75 -1.25,0 -5.75,6.5 -10,14.25 -4.5,8 -11.25,18.25 -14.75,23 -3.5,4.5 -10.5,16.25 -15.25,26.25 -8.25,16.75 -9.25,17.75 -18,18.5 -13,1 -34.5,-10 -34.5,-17.75 0,-3 5.75,-12.25 12.5,-20.5 18.25,-22 18.5,-21.75 -26.25,-15.5 -15,2 -37,4.5 -48.5,5.5 -30.75,2.25 -35.75,6.5 -25.25,22.5 2.75,4 5,9.25 5,11.25 0,2 4.5,10.5 10,18.75 5.5,8.25 10,15.75 10,17 0,1.25 2,5.25 4.75,8.75 2.5,3.75 5.25,9.5 6,13 2.25,9 12.75,21.25 16.25,19 1.75,-1 3,-6.5 3,-12.25 0,-21.75 18,-36.5 30.5,-25 2.5,2.25 7,5.25 10,6.75 10.5,5.25 11,10 3.5,25.75 -17.5,36.25 -32.25,72.5 -44.25,109.5 -5.75,17.75 -12.5,38 -15,45 -4.75,13.75 -15,54.75 -15.5,62.5 -0.75,7.5 10.5,7.75 26.5,0.25 7.5,-3.5 14.5,-6.5 16,-6.5 1.25,0 4.25,-2 6.25,-4.5 4,-4.25 16.75,-42 22,-64.25 1.5,-7 6,-19.25 10,-27.5 4,-8.25 8,-18.5 8.75,-22.5 3.75,-15.75 10.75,-34 14.5,-38.25 2.25,-2.5 5.75,-10 7.75,-16.5 2,-6.5 6.25,-15.25 9.5,-19.75 3.5,-4.5 10.5,-16.75 16,-27.75 20.5,-41 23.75,-47.25 33.5,-60.25 5.5,-7.5 10,-14.5 10,-15.75 0,-1.25 4.5,-8 10,-15 5.5,-6.75 10,-13.25 10,-14.25 0,-1 2.25,-4.5 5,-8 2.75,-3.5 5,-8.25 5,-10.5 0,-5 -13.75,-32 -19.25,-38.5 -5.5,-6 -7,-5.5 -14,3.75 z"
     id="path78"
     style="fill:#E8ECF4" /><path
     d="m 5941.75,1930.25 c -6.5,9.75 -11.75,20 -11.75,22.5 0,2.5 4,9.75 8.75,16 4.75,6.25 12.75,18.5 17.5,27 5,8.5 12.5,20.75 17,27 4.5,6.5 13.5,21.75 20,33.75 6.5,12.25 17.5,31.25 24.25,42.25 6.75,11 12.25,21.75 12.5,23.75 0,5 8.75,27.75 18.75,48.75 4.75,9.5 11.25,27.5 15,40 16.75,56.25 25.25,79.5 30,82.5 2.75,1.75 10,4 16.25,5 6,1 14,4.25 17.75,7 7.25,5.25 14.75,4.25 14.75,-1.75 0,-2.25 -2.75,-12.5 -6.25,-23 -3.5,-10.5 -6.25,-21.75 -6.25,-25.25 0,-3.25 -1.75,-9.25 -3.75,-13.25 -2.25,-4 -4.5,-12.75 -5.25,-19.25 -1,-6.75 -3.5,-16 -6,-20.75 -4,-8.25 -7.25,-16 -20.25,-52 -3,-7.75 -12,-27.75 -20.25,-44.5 -8.25,-16.5 -14.75,-32.25 -14.25,-34.75 1.5,-7 24.5,-23.75 32.75,-23.75 5.5,0 7.75,1.75 10.75,9 2,5 3.75,14 3.75,19.75 0,12.5 5.5,19.5 11,13.5 1.75,-2 5,-8.5 7.25,-14.75 2.25,-6.25 8,-17 12.5,-24 4.75,-7 9.75,-16.5 11.25,-20.75 1.5,-4.25 6.75,-14 11.75,-21.5 5,-7.5 8.75,-15.5 8.25,-18 -1,-5.75 -8.5,-7.25 -50,-10.5 -19.75,-1.75 -41.75,-4.25 -49,-5.75 -18.5,-4 -20.25,-1 -9.5,15 17,25.25 13.75,37.5 -10.5,40 -11.75,1 -12.75,0.5 -17,-6 -2.25,-4 -8,-13 -12.25,-19.75 -4.25,-7 -9.25,-16 -11,-20.5 -1.75,-4.25 -5.5,-10 -8.25,-12.5 -2.75,-2.5 -11.25,-14 -18.75,-25.75 -15.25,-23.5 -22.75,-32.5 -27,-32.5 -1.5,0 -8,8 -14.5,17.75 z"
     id="path79"
     style="fill:#E8ECF4" /><path
     d="m 3057.75,2436 c -3.75,4.5 0.25,25.25 7.5,37.75 5.75,10.25 22.25,59.5 24.75,75 1.25,6.75 5.5,22 9.5,33.75 4,11.75 11,32.75 15.5,47 5.25,16.5 10,26.75 13,28.25 7.5,4 49.75,1.75 52,-2.75 8.75,-17.25 19.25,-46.75 21.25,-58.75 2.25,-15 23.75,-79.5 27.5,-83.5 4.25,-4.25 11.25,-1.75 11.25,4 0.25,2.5 2.25,9 5,14.5 2.75,5.5 5,12.25 5,15 0,2.75 2.25,10 5,16 2.75,6 5,14 5,18 0,4.25 1.75,10 3.75,13.25 5.25,7.75 16.25,40.25 16.25,47.5 0,3.25 2,8.25 4.5,11 3.75,4.5 7.5,5.25 28,6 27,0.75 25.75,1.75 33.75,-26.75 2.25,-8.25 8,-24.5 12.75,-36.25 4.5,-11.75 10.75,-30 13.5,-40.75 2.75,-10.75 7.5,-26 11,-33.75 7.5,-18.25 19,-53.5 19,-59.25 0,-2.25 2.25,-7.5 5.25,-11.5 9.25,-13.25 6.25,-16 -16.5,-15.25 -23.25,1 -26.75,3.75 -31.25,24 -1.5,6.75 -3.5,13.5 -4.75,15 -3,3.75 -15.25,35 -15.25,39 0,3.5 -4.75,20.25 -12.75,46 -2.75,8.25 -4.75,17.5 -4.75,20.5 0,3 -1.75,6.75 -4,8.75 -6.25,5.25 -11.5,-0.25 -16.25,-17.5 -2.25,-8.75 -5.5,-18.25 -7,-21.25 -1.5,-2.75 -6.5,-17 -11.25,-31.5 -4.75,-14.5 -12.25,-35.75 -16.25,-47.5 -4.25,-11.75 -7.75,-23 -7.75,-25.25 0,-2.25 -2,-5.75 -4.5,-8 -3.75,-3.5 -7.75,-3.75 -24.25,-2.25 -19.75,1.75 -20,1.75 -25.25,11.25 -3,5.5 -6,15.75 -7,23.25 -1.5,12.75 -14,48.25 -24,68.5 -2.5,4.75 -5.25,15.5 -6.25,23.5 -2.25,19.75 -5,26.5 -11,26.5 -7,0 -10.25,-5.25 -15,-25.5 -2.5,-10 -6.25,-22.25 -8.5,-27 -7.75,-17.75 -11.5,-29.25 -18,-53.75 -12,-45 -13.25,-46.5 -38.25,-48 -13.25,-0.75 -18,-0.25 -20.25,2.75 z"
     id="path80"
     style="fill:#E8ECF4" /><path
     d="m 6872.5,2436.25 c -3.5,4 -5,215.25 -1.75,218.5 1.75,1.75 31,2.75 86,2.75 93.5,0 88.25,1.25 88.25,-19.25 0,-18.5 1,-18.25 -66.25,-18.75 l -60,-0.75 -0.75,-26 c -0.5,-18 0.25,-27 2.5,-29.5 2.75,-3.25 9.75,-3.75 50.75,-2 43,1.5 48.25,1.25 51.25,-2.5 4.75,-5.5 5.25,-25.5 1,-29 -2.5,-2 -18.25,-2.75 -50,-2.5 -57.75,0.5 -56,1.5 -56,-29.75 0,-15.25 1,-22.75 3.25,-24.75 2.25,-1.75 23.5,-3 60.75,-3.25 l 57.25,-0.75 v -17.5 -17.5 h -82 c -54,0 -83,1 -84.25,2.5 z"
     id="path81"
     style="fill:#E8ECF4" /><path
     d="m 6128.25,2772.75 c -1.5,1.5 -8.25,3.75 -15,5 -14,2.5 -19.5,8 -21.75,22.25 -1,5.75 -3.75,14.75 -6.5,20.25 -2.75,5.25 -5,11.25 -5,13.5 0,2.25 -2,9.25 -4.5,15.75 -2.5,6.5 -6.5,17.25 -8.75,24.25 -4,12 -4,12.75 0.75,16.5 2.5,2.25 12.25,6 21.5,8.25 16.5,4.25 16.75,4.25 22.5,-1.25 3.25,-3 6.5,-9.5 7.5,-14.5 2.75,-17 14,-61.5 17.5,-69.5 2,-4.25 3.5,-11.5 3.5,-16.25 0,-4.5 1.75,-11 4,-14 2.25,-3.25 3.25,-7.25 2.5,-9.25 -1.5,-4.5 -14.25,-5 -18.25,-1 z"
     id="path82"
     style="fill:#E8ECF4" /><path
     d="m 4109,2777 c -0.5,1 0.5,8.5 2.5,16.75 2,8.25 5.75,24 8.25,35 2.5,11 8.25,29.75 12.5,41.75 4.25,12.25 7.75,25.5 7.75,29.5 0,9 5.75,12.25 12,7 2.25,-2 8.75,-5 14.5,-6.5 5.5,-1.5 12.5,-5.5 15.75,-8.75 5,-5.75 5.25,-6.75 2,-14.5 -6.75,-16.25 -14.25,-41 -14.25,-47.25 0,-3.5 -2.25,-11.25 -5,-17.25 -2.75,-6 -5,-12.75 -5,-15.25 0,-9.25 -8.25,-15 -26.25,-18.75 -20,-4.25 -23,-4.5 -24.75,-1.75 z"
     id="path83"
     style="fill:#E8ECF4" /><path
     d="m 4216.75,2927.75 c -2.25,1.25 -6,6.5 -8,11.5 -3.25,7.75 -4.75,8.75 -10.5,7.75 -4,-0.75 -8.75,-2 -11,-3 -2.25,-1 -6.5,0.5 -10.5,3.5 -8.25,6.5 -8.75,16.25 -1.5,24 7,7.5 4.75,13.5 -5.25,13.5 -5.75,0 -8.25,1.5 -10.5,6.5 -3.5,7.75 -0.75,13.25 8.75,18 7.5,3.75 8.25,7.5 3.75,19.75 -2.75,7.5 -2.5,9 2.5,13.75 5.75,5.75 5.5,5.75 23.5,-1.75 3.25,-1.25 6.75,1 13.5,8.5 5.5,6 11.5,10.25 14.75,10.25 5.75,0 13.75,-7 13.75,-12 0,-6 9.5,-8.25 17.75,-4 7.5,3.75 8.25,3.75 13,-1.25 4.75,-4.75 5,-5.75 1.75,-15.5 l -3.5,-10.25 10.5,-8.75 c 14.25,-11.75 14.5,-21.25 1.25,-27.75 -9.25,-4.25 -9.5,-4.75 -9.5,-18 v -13.75 l -14.5,-1.25 c -13.75,-1.25 -15,-1.75 -21.5,-11.25 -7.25,-10.75 -11.5,-12.75 -18.5,-8.5 z m 20.5,42 c 17.75,9.25 19.5,31.25 3.75,47 -9.75,10 -19.25,10.75 -31.25,2.5 -15.75,-10.5 -16.5,-40.25 -1.5,-49.25 10,-6.25 17,-6.25 29,-0.25 z"
     id="path84"
     style="fill:#E8ECF4" /><path
     d="m 6059.5,2944.25 c -6.5,7.75 -21.25,31.5 -32,52.5 -9.5,18.25 -17.5,20.5 -25,7.25 -2.25,-4 -5.25,-7.75 -6.75,-8.25 -3.75,-1.25 -24,26 -38.5,51.5 -5.75,10.5 -14.5,23.75 -19.25,29.5 -4.5,5.75 -8,12.5 -7.5,15 0.75,4.25 7.75,4.5 131.5,4.5 85.25,0 130.5,-0.75 130.5,-2.5 0,-2.75 -13.5,-25.5 -30,-50.5 -16,-24.25 -17,-26 -21,-35.25 -4.5,-9.5 -5.5,-9.75 -13.25,-2.5 -8.25,7.5 -11.25,5.25 -30,-23.25 -29.75,-45 -31.25,-46.5 -38.75,-38 z m 15.75,28.75 c 4.5,8.75 9.5,18.5 11.5,22 6.75,13 1,28.75 -7.5,20.25 -5,-5 -11.5,-3 -15.5,4.75 -4.25,8.25 -6.5,9 -13.75,4.5 -4,-2.5 -6,-2.5 -10,0 -14.5,9 -18.5,-0.5 -7.25,-17.75 12,-18.25 14.25,-22.25 17.75,-29.25 4.5,-9.5 12,-20 14.5,-20 1,0 5.75,7 10.25,15.5 z m -70,46 c 1.75,5 1.5,8 -1.25,12.25 -6.75,10.5 -20.75,23.75 -25,23.75 -5.5,0 -8,-7.25 -4.25,-12.25 1.5,-2.25 4.25,-6.75 6,-10.25 10,-20.5 19.75,-25.75 24.5,-13.5 z"
     id="path85"
     style="fill:#E8ECF4" /><path
     d="m 4103,3015.5 c -1.75,1.75 -3,4.5 -3,6.25 0,4.75 -9.75,8.75 -16.75,7 -10.25,-2.5 -16,4.5 -14,17.75 1.25,9.75 0.75,11.75 -5.25,17.25 -8.5,7.75 -8.25,11.75 1.25,22.25 5,6 7.25,10.5 6.25,13.5 -1.75,5.5 4.25,11.75 8.5,9.25 1.5,-1 5.75,1 9.25,4 5,5 9,6 22.25,6.25 13.25,0.25 16.75,-0.5 18.75,-4.5 1.75,-3.25 5.25,-4.5 12.25,-4.5 11.25,0 13.75,-2.75 13.75,-16 0,-8.25 1.25,-10.5 7.5,-14 4.25,-2.25 8,-6 8.25,-8.5 1,-5 -6,-14 -11,-14 -5.5,0 -10.75,-10.25 -9.25,-17.75 2,-10.75 -3,-15.5 -14.75,-13.5 -8.5,1.5 -10.25,0.75 -16.25,-6 -7.25,-8.25 -12.75,-9.75 -17.75,-4.75 z m 18,30.5 c 16.75,7 21.25,23 10,36.25 -11.75,14 -31.75,9.25 -38.5,-8.75 -4,-10 -3,-13.5 6,-22.5 9.5,-9.5 10.75,-9.75 22.5,-5 z"
     id="path86"
     style="fill:#E8ECF4" />

</svg>